<svg width="20" height="20" viewBox="0 0 20 20" fill="none" xmlns="http://www.w3.org/2000/svg">
<mask id="mask0_5798_873" style="mask-type:alpha" maskUnits="userSpaceOnUse" x="0" y="0" width="20" height="20">
<rect width="20" height="20" fill="#C4C4C4"/>
</mask>
<g mask="url(#mask0_5798_873)">
<path d="M10 17.5001C9.06949 17.5001 8.20143 17.3265 7.39587 16.9792C6.59032 16.632 5.8856 16.1565 5.28171 15.5526C4.67726 14.9481 4.20143 14.2431 3.85421 13.4376C3.50699 12.632 3.33337 11.764 3.33337 10.8334C3.33337 9.90286 3.50699 9.0348 3.85421 8.22925C4.20143 7.42369 4.67726 6.71869 5.28171 6.11425C5.8856 5.51036 6.59032 5.0348 7.39587 4.68758C8.20143 4.34036 9.06949 4.16675 10 4.16675C10.9306 4.16675 11.7987 4.34036 12.6042 4.68758C13.4098 5.0348 14.1148 5.51036 14.7192 6.11425C15.3231 6.71869 15.7987 7.42369 16.1459 8.22925C16.4931 9.0348 16.6667 9.90286 16.6667 10.8334C16.6667 11.764 16.4931 12.632 16.1459 13.4376C15.7987 14.2431 15.3231 14.9481 14.7192 15.5526C14.1148 16.1565 13.4098 16.632 12.6042 16.9792C11.7987 17.3265 10.9306 17.5001 10 17.5001ZM12.625 14.0417L13.2084 13.4584L10.4167 10.6667V6.66675H9.58337V11.0001L12.625 14.0417ZM4.91671 2.85425L5.52087 3.43758L2.60421 6.35425L2.02087 5.75008L4.91671 2.85425ZM15.0834 2.85425L17.9792 5.75008L17.3959 6.35425L14.4792 3.43758L15.0834 2.85425ZM10 16.6667C11.6112 16.6667 12.9862 16.0973 14.125 14.9584C15.2639 13.8195 15.8334 12.4445 15.8334 10.8334C15.8334 9.2223 15.2639 7.8473 14.125 6.70841C12.9862 5.56953 11.6112 5.00008 10 5.00008C8.38893 5.00008 7.01393 5.56953 5.87504 6.70841C4.73615 7.8473 4.16671 9.2223 4.16671 10.8334C4.16671 12.4445 4.73615 13.8195 5.87504 14.9584C7.01393 16.0973 8.38893 16.6667 10 16.6667Z" fill="#31373D"/>
</g>
</svg>
