<svg width="21" height="16" viewBox="0 0 21 16" fill="none" xmlns="http://www.w3.org/2000/svg">
<g clip-path="url(#clip0_703_937)">
<path d="M19 0.5H2C0.89543 0.5 0 1.39543 0 2.5V13.5C0 14.6046 0.89543 15.5 2 15.5H19C20.1046 15.5 21 14.6046 21 13.5V2.5C21 1.39543 20.1046 0.5 19 0.5Z" fill="#FFDA2C"/>
<path fill-rule="evenodd" clip-rule="evenodd" d="M11.936 10.435C12.55 10.248 13 9.677 13 9V6C13 5.165 12.328 4.5 11.5 4.5H9.5C8.674 4.5 8 5.17 8 6V9C8 9.682 8.448 10.25 9.064 10.436C9.25 11.056 9.822 11.5 10.5 11.5C11.182 11.5 11.75 11.05 11.936 10.435Z" fill="#D4AF2C"/>
<path fill-rule="evenodd" clip-rule="evenodd" d="M9 5.5H10V7H9V5.5ZM11 7.5H12V9H11V7.5Z" fill="#AF010D"/>
<path fill-rule="evenodd" clip-rule="evenodd" d="M11 5.5H12V7H11V5.5ZM9 7.5H10V9H9V7.5Z" fill="#FFDA2C"/>
<path fill-rule="evenodd" clip-rule="evenodd" d="M14 0.5H21V15.5H14V0.5Z" fill="#F93939"/>
<path fill-rule="evenodd" clip-rule="evenodd" d="M0 0.5H7V15.5H0V0.5Z" fill="#1A47B8"/>
</g>
<defs>
<clipPath id="clip0_703_937">
<rect y="0.5" width="21" height="15" rx="3" fill="white"/>
</clipPath>
</defs>
</svg>
