<svg width="20" height="20" viewBox="0 0 20 20" fill="none" xmlns="http://www.w3.org/2000/svg">
<mask id="mask0_5798_812" style="mask-type:alpha" maskUnits="userSpaceOnUse" x="0" y="0" width="20" height="20">
<rect width="20" height="20" fill="#C4C4C4"/>
</mask>
<g mask="url(#mask0_5798_812)">
<path d="M4.41671 15.8333H5.31254L13.9792 7.16659L13.5417 6.70825L13.0834 6.27075L4.41671 14.9374V15.8333ZM3.58337 16.6666V14.5833L14.2917 3.89575C14.4445 3.72909 14.6389 3.64575 14.875 3.64575C15.1112 3.64575 15.3125 3.72909 15.4792 3.89575L16.3542 4.79159C16.5209 4.95825 16.6042 5.15631 16.6042 5.38575C16.6042 5.61464 16.5209 5.81242 16.3542 5.97909L5.66671 16.6666H3.58337ZM13.9792 7.16659L13.5417 6.70825L13.0834 6.27075L13.9792 7.16659Z" fill="#4D5760"/>
</g>
</svg>
