<svg width="20" height="20" viewBox="0 0 20 20" fill="none" xmlns="http://www.w3.org/2000/svg">
<mask id="mask0_5798_865" style="mask-type:alpha" maskUnits="userSpaceOnUse" x="0" y="0" width="20" height="20">
<rect width="20" height="20" fill="#C4C4C4"/>
</mask>
<g mask="url(#mask0_5798_865)">
<path d="M5.52079 17.5C5.1319 17.5 4.80913 17.3717 4.55246 17.115C4.29524 16.8578 4.16663 16.5347 4.16663 16.1458V3.85417C4.16663 3.46528 4.29524 3.14222 4.55246 2.885C4.80913 2.62833 5.1319 2.5 5.52079 2.5H12.2708L15.8333 6.0625V16.1458C15.8333 16.5347 15.705 16.8578 15.4483 17.115C15.1911 17.3717 14.868 17.5 14.4791 17.5H5.52079ZM5.52079 16.6667H14.4791C14.618 16.6667 14.7394 16.6144 14.8433 16.51C14.9477 16.4061 15 16.2847 15 16.1458V6.47917H11.8541V3.33333H5.52079C5.3819 3.33333 5.26051 3.38556 5.15663 3.49C5.05218 3.59389 4.99996 3.71528 4.99996 3.85417V16.1458C4.99996 16.2847 5.05218 16.4061 5.15663 16.51C5.26051 16.6144 5.3819 16.6667 5.52079 16.6667ZM9.99996 15.1667C10.7638 15.1667 11.4027 14.8889 11.9166 14.3333C12.4305 13.7778 12.6875 13.1111 12.6875 12.3333V8.52083H11.8541V12.3333C11.8541 12.875 11.6772 13.3439 11.3233 13.74C10.9688 14.1356 10.5277 14.3333 9.99996 14.3333C9.47218 14.3333 9.03135 14.1356 8.67746 13.74C8.32301 13.3439 8.14579 12.875 8.14579 12.3333V7.79167C8.14579 7.56944 8.21163 7.37833 8.34329 7.21833C8.47551 7.05889 8.64579 6.97917 8.85413 6.97917C9.07635 6.97917 9.25329 7.05889 9.38496 7.21833C9.51718 7.37833 9.58329 7.56944 9.58329 7.79167V12.3333H10.4166V7.79167C10.4166 7.34722 10.2675 6.96167 9.96913 6.635C9.67024 6.30889 9.29857 6.14583 8.85413 6.14583C8.40968 6.14583 8.04163 6.30889 7.74996 6.635C7.45829 6.96167 7.31246 7.34722 7.31246 7.79167V12.3333C7.31246 13.1111 7.57301 13.7778 8.09413 14.3333C8.61468 14.8889 9.24996 15.1667 9.99996 15.1667Z" fill="#31373D"/>
</g>
</svg>
