<svg width="20" height="20" viewBox="0 0 20 20" fill="none" xmlns="http://www.w3.org/2000/svg">
<mask id="mask0_5798_820" style="mask-type:alpha" maskUnits="userSpaceOnUse" x="0" y="0" width="20" height="20">
<rect width="20" height="20" fill="#C4C4C4"/>
</mask>
<g mask="url(#mask0_5798_820)">
<path d="M2.16663 15.5209V14.1459C2.16663 13.757 2.26746 13.4237 2.46913 13.1459C2.67024 12.8681 2.93746 12.6459 3.27079 12.4792C3.99301 12.132 4.7119 11.8579 5.42746 11.6567C6.14246 11.4551 6.99996 11.3542 7.99996 11.3542C8.99996 11.3542 9.85774 11.4551 10.5733 11.6567C11.2883 11.8579 12.0069 12.132 12.7291 12.4792C13.0625 12.6459 13.33 12.8681 13.5316 13.1459C13.7327 13.4237 13.8333 13.757 13.8333 14.1459V15.5209H2.16663ZM14.375 11.6251C14.7777 11.7084 15.1702 11.8265 15.5525 11.9792C15.9341 12.132 16.3125 12.2987 16.6875 12.4792C17.0486 12.6598 17.33 12.8923 17.5316 13.1767C17.7327 13.4617 17.8333 13.7709 17.8333 14.1042V15.5209H15.5V14.1042C15.5 13.6181 15.4027 13.1598 15.2083 12.7292C15.0138 12.2987 14.7361 11.9306 14.375 11.6251ZM7.99996 9.47925C7.30552 9.47925 6.71524 9.23619 6.22913 8.75008C5.74301 8.26397 5.49996 7.67369 5.49996 6.97925C5.49996 6.29869 5.74301 5.71175 6.22913 5.21841C6.71524 4.72564 7.30552 4.47925 7.99996 4.47925C8.68052 4.47925 9.26746 4.72564 9.76079 5.21841C10.2536 5.71175 10.5 6.29869 10.5 6.97925C10.5 7.67369 10.2536 8.26397 9.76079 8.75008C9.26746 9.23619 8.68052 9.47925 7.99996 9.47925ZM14.0625 6.97925C14.0625 7.67369 13.8161 8.26397 13.3233 8.75008C12.83 9.23619 12.243 9.47925 11.5625 9.47925C11.5208 9.47925 11.4722 9.47591 11.4166 9.46925C11.3611 9.46203 11.3194 9.45842 11.2916 9.45842C11.5694 9.11119 11.7847 8.72564 11.9375 8.30175C12.0902 7.87841 12.1666 7.43758 12.1666 6.97925C12.1666 6.5348 12.0866 6.10425 11.9266 5.68758C11.7672 5.27091 11.5555 4.88203 11.2916 4.52091C11.3333 4.50703 11.375 4.49647 11.4166 4.48925C11.4583 4.48258 11.5069 4.47925 11.5625 4.47925C12.243 4.47925 12.83 4.72564 13.3233 5.21841C13.8161 5.71175 14.0625 6.29869 14.0625 6.97925ZM2.99996 14.6876H13V14.1459C13 13.9515 12.9513 13.7815 12.8541 13.6359C12.7569 13.4898 12.5833 13.3473 12.3333 13.2084C11.7083 12.8751 11.0522 12.6217 10.365 12.4484C9.67718 12.2745 8.88885 12.1876 7.99996 12.1876C7.11107 12.1876 6.32301 12.2745 5.63579 12.4484C4.94801 12.6217 4.29163 12.8751 3.66663 13.2084C3.41663 13.3473 3.24302 13.4898 3.14579 13.6359C3.04857 13.7815 2.99996 13.9515 2.99996 14.1459V14.6876ZM7.99996 8.64591C8.45829 8.64591 8.85079 8.48258 9.17746 8.15591C9.50357 7.8298 9.66663 7.43758 9.66663 6.97925C9.66663 6.52091 9.50357 6.12869 9.17746 5.80258C8.85079 5.47591 8.45829 5.31258 7.99996 5.31258C7.54163 5.31258 7.1494 5.47591 6.82329 5.80258C6.49663 6.12869 6.33329 6.52091 6.33329 6.97925C6.33329 7.43758 6.49663 7.8298 6.82329 8.15591C7.1494 8.48258 7.54163 8.64591 7.99996 8.64591Z" fill="#4D5760"/>
</g>
</svg>
