<svg width="20" height="20" viewBox="0 0 20 20" fill="none" xmlns="http://www.w3.org/2000/svg">
<mask id="mask0_5798_828" style="mask-type:alpha" maskUnits="userSpaceOnUse" x="0" y="0" width="20" height="20">
<rect width="20" height="20" fill="#D9D9D9"/>
</mask>
<g mask="url(#mask0_5798_828)">
<path d="M6.91671 16.6667H13.0834V14.1667C13.0834 13.2222 12.7917 12.3992 12.2084 11.6975C11.625 10.9964 10.8889 10.6458 10 10.6458C9.11115 10.6458 8.37504 10.9964 7.79171 11.6975C7.20837 12.3992 6.91671 13.2222 6.91671 14.1667V16.6667ZM10 9.35417C10.8889 9.35417 11.625 9.00333 12.2084 8.30167C12.7917 7.60056 13.0834 6.77778 13.0834 5.83333V3.33333H6.91671V5.83333C6.91671 6.77778 7.20837 7.60056 7.79171 8.30167C8.37504 9.00333 9.11115 9.35417 10 9.35417ZM15.25 17.5H4.75004C4.62504 17.5 4.52449 17.4583 4.44837 17.375C4.37171 17.2917 4.33337 17.1944 4.33337 17.0833C4.33337 16.9583 4.37171 16.8575 4.44837 16.7808C4.52449 16.7047 4.62504 16.6667 4.75004 16.6667H6.08337V14.1667C6.08337 13.2083 6.3506 12.3403 6.88504 11.5625C7.42004 10.7847 8.13893 10.2639 9.04171 10C8.13893 9.73611 7.42004 9.21528 6.88504 8.4375C6.3506 7.65972 6.08337 6.79167 6.08337 5.83333V3.33333H4.75004C4.62504 3.33333 4.52449 3.29167 4.44837 3.20833C4.37171 3.125 4.33337 3.02778 4.33337 2.91667C4.33337 2.79167 4.37171 2.69083 4.44837 2.61417C4.52449 2.53806 4.62504 2.5 4.75004 2.5H15.25C15.375 2.5 15.4759 2.54167 15.5525 2.625C15.6287 2.70833 15.6667 2.80556 15.6667 2.91667C15.6667 3.04167 15.6287 3.14222 15.5525 3.21833C15.4759 3.295 15.375 3.33333 15.25 3.33333H13.9167V5.83333C13.9167 6.79167 13.6495 7.65972 13.115 8.4375C12.58 9.21528 11.8612 9.73611 10.9584 10C11.8612 10.2639 12.58 10.7847 13.115 11.5625C13.6495 12.3403 13.9167 13.2083 13.9167 14.1667V16.6667H15.25C15.375 16.6667 15.4759 16.7083 15.5525 16.7917C15.6287 16.875 15.6667 16.9722 15.6667 17.0833C15.6667 17.2083 15.6287 17.3092 15.5525 17.3858C15.4759 17.4619 15.375 17.5 15.25 17.5Z" fill="#31373D"/>
</g>
</svg>
