<svg width="20" height="20" viewBox="0 0 20 20" fill="none" xmlns="http://www.w3.org/2000/svg">
<mask id="mask0_703_2282" style="mask-type:alpha" maskUnits="userSpaceOnUse" x="0" y="0" width="20" height="20">
<rect width="20" height="20" fill="#C4C4C4"/>
</mask>
<g mask="url(#mask0_703_2282)">
<path d="M9.58333 13.75H10.4167V9.16667H9.58333V13.75ZM10 7.97917C10.1389 7.97917 10.2606 7.93056 10.365 7.83333C10.4689 7.73611 10.5208 7.61111 10.5208 7.45833C10.5208 7.31944 10.4689 7.20139 10.365 7.10417C10.2606 7.00694 10.1389 6.95833 10 6.95833C9.86111 6.95833 9.73944 7.00694 9.635 7.10417C9.53111 7.20139 9.47917 7.31944 9.47917 7.45833C9.47917 7.61111 9.53111 7.73611 9.635 7.83333C9.73944 7.93056 9.86111 7.97917 10 7.97917ZM10 17.5C8.95833 17.5 7.97917 17.3056 7.0625 16.9167C6.14583 16.5278 5.35083 15.9967 4.6775 15.3233C4.00361 14.6494 3.47222 13.8542 3.08333 12.9375C2.69444 12.0208 2.5 11.0417 2.5 10C2.5 8.95833 2.69444 7.97917 3.08333 7.0625C3.47222 6.14583 4.00361 5.35056 4.6775 4.67667C5.35083 4.00333 6.14583 3.47222 7.0625 3.08333C7.97917 2.69444 8.95833 2.5 10 2.5C11.0417 2.5 12.0208 2.69444 12.9375 3.08333C13.8542 3.47222 14.6494 4.00333 15.3233 4.67667C15.9967 5.35056 16.5278 6.14583 16.9167 7.0625C17.3056 7.97917 17.5 8.95833 17.5 10C17.5 11.0417 17.3056 12.0208 16.9167 12.9375C16.5278 13.8542 15.9967 14.6494 15.3233 15.3233C14.6494 15.9967 13.8542 16.5278 12.9375 16.9167C12.0208 17.3056 11.0417 17.5 10 17.5ZM10 16.6667C11.8472 16.6667 13.4203 16.0175 14.7192 14.7192C16.0175 13.4203 16.6667 11.8472 16.6667 10C16.6667 8.15278 16.0175 6.57972 14.7192 5.28083C13.4203 3.9825 11.8472 3.33333 10 3.33333C8.15278 3.33333 6.58 3.9825 5.28167 5.28083C3.98278 6.57972 3.33333 8.15278 3.33333 10C3.33333 11.8472 3.98278 13.4203 5.28167 14.7192C6.58 16.0175 8.15278 16.6667 10 16.6667Z" fill="#31373D"/>
</g>
</svg>
