<svg width="20" height="20" viewBox="0 0 20 20" fill="none" xmlns="http://www.w3.org/2000/svg">
<path d="M2.54171 2.80081C1.23199 4.16123 1.50004 5.60637 1.50004 9.99665C1.50004 13.6425 0.863932 17.2973 4.1931 18.1578C5.23268 18.4251 14.4438 18.4251 15.482 18.1564C16.8681 17.7987 17.9959 16.6744 18.15 14.714C18.1716 14.4404 18.1716 5.55776 18.1493 5.27859C17.9855 3.1904 16.7 1.98693 15.0063 1.74318C14.6181 1.68693 14.5403 1.67026 12.5487 1.66679C5.48407 1.67026 3.93546 1.35568 2.54171 2.80081Z" fill="url(#paint0_linear_703_964)"/>
<path d="M9.83191 3.84652C7.31038 3.84652 4.91594 3.62221 4.00135 5.96943C3.62358 6.93888 3.67844 8.1979 3.67844 10.0007C3.67844 11.5826 3.62774 13.0694 4.00135 14.0312C4.91385 16.3798 7.32774 16.1548 9.83052 16.1548C12.2451 16.1548 14.7347 16.4062 15.6604 14.0312C16.0389 13.0521 15.9833 11.8118 15.9833 10.0007C15.9833 7.59652 16.1159 6.04443 14.95 4.87915C13.7694 3.6986 12.1729 3.84652 9.82913 3.84652H9.83191ZM9.28052 4.95554C14.5402 4.94721 15.2097 4.36249 14.8402 12.4854C14.709 15.3583 12.5215 15.043 9.8326 15.043C4.92983 15.043 4.78885 14.9028 4.78885 9.9979C4.78885 5.0361 5.17774 4.95832 9.28052 4.95415V4.95554ZM13.1166 5.97707C12.709 5.97707 12.3784 6.30763 12.3784 6.71527C12.3784 7.1229 12.709 7.45346 13.1166 7.45346C13.5243 7.45346 13.8548 7.1229 13.8548 6.71527C13.8548 6.30763 13.5243 5.97707 13.1166 5.97707ZM9.83191 6.84026C8.08677 6.84026 6.67219 8.25554 6.67219 10.0007C6.67219 11.7458 8.08677 13.1604 9.83191 13.1604C11.577 13.1604 12.9909 11.7458 12.9909 10.0007C12.9909 8.25554 11.577 6.84026 9.83191 6.84026ZM9.83191 7.94929C12.5437 7.94929 12.5472 12.0521 9.83191 12.0521C7.1208 12.0521 7.11663 7.94929 9.83191 7.94929Z" fill="white"/>
<defs>
<linearGradient id="paint0_linear_703_964" x1="2.57367" y1="17.2689" x2="18.0636" y2="3.86261" gradientUnits="userSpaceOnUse">
<stop stop-color="#FFDD55"/>
<stop offset="0.5" stop-color="#FF543E"/>
<stop offset="1" stop-color="#C837AB"/>
</linearGradient>
</defs>
</svg>
