<svg width="40" height="40" viewBox="0 0 40 40" fill="none" xmlns="http://www.w3.org/2000/svg">
<path d="M32.316 13.9454H27.0014C26.7468 13.9454 26.5026 13.8442 26.3226 13.6642C26.1425 13.4841 26.0414 13.24 26.0414 12.9853V7.73466C26.0414 7.48005 26.1425 7.23587 26.3226 7.05584C26.5026 6.8758 26.7468 6.77466 27.0014 6.77466H29.0867C31.4 6.77466 33.276 8.64933 33.276 10.9627V12.9853C33.276 13.24 33.1749 13.4841 32.9949 13.6642C32.8148 13.8442 32.5707 13.9454 32.316 13.9454Z" fill="#131316"/>
<path d="M6.73596 29.0574V17.3348C6.73596 17.2087 6.76079 17.0839 6.80904 16.9674C6.85728 16.8509 6.928 16.7451 7.01714 16.6559C7.10628 16.5668 7.21211 16.4961 7.32859 16.4478C7.44506 16.3996 7.56989 16.3748 7.69596 16.3748H12.9813C13.2359 16.3748 13.4801 16.4759 13.6601 16.6559C13.8402 16.836 13.9413 17.0801 13.9413 17.3348V32.2868C13.9413 32.5414 13.8402 32.7855 13.6601 32.9656C13.4801 33.1456 13.2359 33.2468 12.9813 33.2468H10.9253C8.61196 33.2468 6.73596 31.3708 6.73596 29.0574Z" fill="#131316"/>
<path d="M16.3867 29.0574V17.3348C16.3867 17.0801 16.4879 16.836 16.6679 16.6559C16.8479 16.4759 17.0921 16.3748 17.3467 16.3748H22.6321C22.8867 16.3748 23.1308 16.4759 23.3109 16.6559C23.4909 16.836 23.5921 17.0801 23.5921 17.3348V32.2868C23.5921 32.5414 23.4909 32.7855 23.3109 32.9656C23.1308 33.1456 22.8867 33.2468 22.6321 33.2468H20.5761C18.2627 33.2468 16.3867 31.3708 16.3867 29.0574Z" fill="#131316"/>
<path d="M26.0375 29.0574V17.3348C26.0375 17.0801 26.1386 16.836 26.3186 16.6559C26.4987 16.4759 26.7429 16.3748 26.9975 16.3748H32.2827C32.5373 16.3748 32.7815 16.4759 32.9615 16.6559C33.1416 16.836 33.2427 17.0801 33.2427 17.3348V32.2868C33.2427 32.5414 33.1416 32.7855 32.9615 32.9656C32.7815 33.1456 32.5373 33.2468 32.2827 33.2468H30.2268C27.9134 33.2468 26.0375 31.3708 26.0375 29.0574Z" fill="#131316"/>
<path d="M19.4906 6.76408L7.68667 6.75342C7.43229 6.75342 7.18831 6.85438 7.00831 7.03412C6.82832 7.21387 6.72702 7.45771 6.72667 7.71208L6.724 9.82008C6.72267 12.0854 8.55733 13.9254 10.824 13.9268L22.628 13.9388C22.8827 13.9388 23.127 13.8377 23.3073 13.6577C23.4875 13.4777 23.589 13.2335 23.5893 12.9788V10.8721C23.5933 8.60542 21.7573 6.76675 19.4906 6.76408Z" fill="#131316"/>
</svg>
