<svg width="20" height="20" viewBox="0 0 20 20" fill="none" xmlns="http://www.w3.org/2000/svg">
<path fill-rule="evenodd" clip-rule="evenodd" d="M18.3334 3.75008C18.3334 2.60024 17.3999 1.66675 16.25 1.66675H3.75002C2.60018 1.66675 1.66669 2.60024 1.66669 3.75008V16.2501C1.66669 17.3999 2.60018 18.3334 3.75002 18.3334H16.25C17.3999 18.3334 18.3334 17.3999 18.3334 16.2501V3.75008Z" fill="#2867B2"/>
<path d="M6.44407 7.4812H3.6524V15.8784H6.44407V7.4812Z" fill="white"/>
<path d="M5.06879 3.43262C4.11368 3.43262 3.48962 4.06055 3.48962 4.88356C3.48962 5.68929 4.0947 6.33454 5.03184 6.33454H5.04988C6.02328 6.33454 6.62917 5.68929 6.62917 4.88356C6.61111 4.06055 6.02335 3.43262 5.06879 3.43262Z" fill="white"/>
<path d="M13.3046 7.28589C11.8238 7.28589 11.1605 8.10024 10.7891 8.67225V7.48335H7.99811C8.03512 8.27101 7.99811 15.8805 7.99811 15.8805H10.789V11.1909C10.789 10.9399 10.8071 10.689 10.8811 10.5096C11.0825 10.0083 11.542 9.48901 12.3131 9.48901C13.3226 9.48901 13.727 10.2593 13.727 11.3877V15.8805H16.5181V11.0651C16.5181 8.48576 15.141 7.28589 13.3046 7.28589Z" fill="white"/>
</svg>
