<svg width="20" height="20" viewBox="0 0 20 20" fill="none" xmlns="http://www.w3.org/2000/svg">
<mask id="mask0_5798_789" style="mask-type:alpha" maskUnits="userSpaceOnUse" x="0" y="0" width="20" height="20">
<rect width="20" height="20" fill="#C4C4C4"/>
</mask>
<g mask="url(#mask0_5798_789)">
<path d="M5.37496 10.8334C5.15274 10.8334 4.95829 10.7534 4.79163 10.5934C4.62496 10.434 4.54163 10.2362 4.54163 10.0001C4.54163 9.76397 4.62496 9.56591 4.79163 9.40591C4.95829 9.24647 5.15274 9.16675 5.37496 9.16675C5.61107 9.16675 5.80885 9.24647 5.96829 9.40591C6.12829 9.56591 6.20829 9.76397 6.20829 10.0001C6.20829 10.2362 6.12829 10.434 5.96829 10.5934C5.80885 10.7534 5.61107 10.8334 5.37496 10.8334ZM9.99996 10.8334C9.76385 10.8334 9.56607 10.7534 9.40663 10.5934C9.24663 10.434 9.16663 10.2362 9.16663 10.0001C9.16663 9.76397 9.24663 9.56591 9.40663 9.40591C9.56607 9.24647 9.76385 9.16675 9.99996 9.16675C10.2361 9.16675 10.4341 9.24647 10.5941 9.40591C10.7536 9.56591 10.8333 9.76397 10.8333 10.0001C10.8333 10.2362 10.7536 10.434 10.5941 10.5934C10.4341 10.7534 10.2361 10.8334 9.99996 10.8334ZM14.625 10.8334C14.3888 10.8334 14.1908 10.7534 14.0308 10.5934C13.8713 10.434 13.7916 10.2362 13.7916 10.0001C13.7916 9.76397 13.8713 9.56591 14.0308 9.40591C14.1908 9.24647 14.3888 9.16675 14.625 9.16675C14.8472 9.16675 15.0416 9.24647 15.2083 9.40591C15.375 9.56591 15.4583 9.76397 15.4583 10.0001C15.4583 10.2362 15.375 10.434 15.2083 10.5934C15.0416 10.7534 14.8472 10.8334 14.625 10.8334Z" fill="#4D5760"/>
</g>
</svg>
