<svg width="20" height="20" viewBox="0 0 20 20" fill="none" xmlns="http://www.w3.org/2000/svg">
<mask id="mask0_5798_838" style="mask-type:alpha" maskUnits="userSpaceOnUse" x="0" y="0" width="20" height="20">
<rect width="20" height="20" fill="#C4C4C4"/>
</mask>
<g mask="url(#mask0_5798_838)">
<path d="M15.625 6.66667V5H13.9584V4.16667H15.625V2.5H16.4584V4.16667H18.125V5H16.4584V6.66667H15.625ZM2.81254 17.5C2.42365 17.5 2.10087 17.3717 1.84421 17.115C1.58699 16.8578 1.45837 16.5347 1.45837 16.1458V7.1875C1.45837 6.79861 1.58699 6.47583 1.84421 6.21917C2.10087 5.96194 2.42365 5.83333 2.81254 5.83333H5.27087L6.81254 4.16667H11.875V5H7.16671L5.62504 6.66667H2.81254C2.65976 6.66667 2.53476 6.71528 2.43754 6.8125C2.34032 6.90972 2.29171 7.03472 2.29171 7.1875V16.1458C2.29171 16.2986 2.34032 16.4236 2.43754 16.5208C2.53476 16.6181 2.65976 16.6667 2.81254 16.6667H15.1042C15.257 16.6667 15.382 16.6181 15.4792 16.5208C15.5764 16.4236 15.625 16.2986 15.625 16.1458V8.75H16.4584V16.1458C16.4584 16.5347 16.33 16.8578 16.0734 17.115C15.8162 17.3717 15.4931 17.5 15.1042 17.5H2.81254ZM8.95837 14.7708C9.83337 14.7708 10.5695 14.4722 11.1667 13.875C11.7639 13.2778 12.0625 12.5417 12.0625 11.6667C12.0625 10.7917 11.7639 10.0556 11.1667 9.45833C10.5695 8.86111 9.83337 8.5625 8.95837 8.5625C8.08337 8.5625 7.34726 8.86111 6.75004 9.45833C6.15282 10.0556 5.85421 10.7917 5.85421 11.6667C5.85421 12.5417 6.15282 13.2778 6.75004 13.875C7.34726 14.4722 8.08337 14.7708 8.95837 14.7708ZM8.95837 13.9375C8.3056 13.9375 7.76393 13.7222 7.33337 13.2917C6.90282 12.8611 6.68754 12.3194 6.68754 11.6667C6.68754 11.0139 6.90282 10.4722 7.33337 10.0417C7.76393 9.61111 8.3056 9.39583 8.95837 9.39583C9.61115 9.39583 10.1528 9.61111 10.5834 10.0417C11.0139 10.4722 11.2292 11.0139 11.2292 11.6667C11.2292 12.3194 11.0139 12.8611 10.5834 13.2917C10.1528 13.7222 9.61115 13.9375 8.95837 13.9375Z" fill="#31373D"/>
</g>
</svg>
