<svg width="20" height="20" viewBox="0 0 20 20" fill="none" xmlns="http://www.w3.org/2000/svg">
<mask id="mask0_5798_857" style="mask-type:alpha" maskUnits="userSpaceOnUse" x="0" y="0" width="20" height="20">
<rect width="20" height="20" fill="#C4C4C4"/>
</mask>
<g mask="url(#mask0_5798_857)">
<path d="M6.25 3.70833V2.875H13.75V3.70833H6.25ZM3.75 6.02083V5.1875H16.25V6.02083H3.75ZM3.85417 17.5C3.46528 17.5 3.1425 17.3717 2.88583 17.115C2.62861 16.8578 2.5 16.5347 2.5 16.1458V8.85417C2.5 8.46528 2.62861 8.14222 2.88583 7.885C3.1425 7.62833 3.46528 7.5 3.85417 7.5H16.1458C16.5347 7.5 16.8578 7.62833 17.115 7.885C17.3717 8.14222 17.5 8.46528 17.5 8.85417V16.1458C17.5 16.5347 17.3717 16.8578 17.115 17.115C16.8578 17.3717 16.5347 17.5 16.1458 17.5H3.85417ZM3.85417 16.6667H16.1458C16.2847 16.6667 16.4061 16.6144 16.51 16.51C16.6144 16.4061 16.6667 16.2847 16.6667 16.1458V8.85417C16.6667 8.71528 16.6144 8.59389 16.51 8.49C16.4061 8.38556 16.2847 8.33333 16.1458 8.33333H3.85417C3.71528 8.33333 3.59389 8.38556 3.49 8.49C3.38556 8.59389 3.33333 8.71528 3.33333 8.85417V16.1458C3.33333 16.2847 3.38556 16.4061 3.49 16.51C3.59389 16.6144 3.71528 16.6667 3.85417 16.6667ZM8.75 15.0625L12.6042 12.5L8.75 9.9375V15.0625Z" fill="#31373D"/>
</g>
</svg>
