<svg width="20" height="20" viewBox="0 0 20 20" fill="none" xmlns="http://www.w3.org/2000/svg">
<g clip-path="url(#clip0_703_976)">
<path d="M6.45048 18.3334C14.1907 18.3334 18.4243 11.9207 18.4243 6.3596C18.4243 6.17748 18.4243 5.99617 18.412 5.81565C19.2356 5.21989 19.9465 4.48232 20.5115 3.63734C19.7435 3.97766 18.9287 4.2008 18.0945 4.29944C18.9728 3.77367 19.6305 2.94608 19.9446 1.97178C19.1186 2.46193 18.2147 2.80742 17.2724 2.99327C16.4767 2.14713 15.3653 1.66675 14.2039 1.66675C11.8931 1.66675 9.99164 3.56823 9.99164 5.87898C9.99164 6.19956 10.0283 6.51913 10.1007 6.83137C6.71877 6.66187 3.56344 5.06221 1.42759 2.43453C0.316927 4.34651 0.891611 6.82432 2.73048 8.05221C2.06085 8.03238 1.4056 7.8517 0.820462 7.52548V7.5788C0.821022 9.57443 2.24052 11.309 4.19665 11.7041C3.57714 11.873 2.92698 11.8977 2.29649 11.7763C2.84642 13.4863 4.43222 14.6651 6.22814 14.6988C4.73825 15.8697 2.89673 16.5057 1.00178 16.5038C0.666946 16.5032 0.332431 16.4829 0 16.4431C1.92432 17.678 4.164 18.3332 6.45048 18.3301" fill="#1DA1F2"/>
</g>
<defs>
<clipPath id="clip0_703_976">
<rect width="20" height="20" fill="white"/>
</clipPath>
</defs>
</svg>
